<svg id="Layer_1" data-name="Layer 1" xmlns="http://www.w3.org/2000/svg" viewBox="0 0 118.45 183.59"><defs><style>.cls-1{fill:#f3ec56;}.cls-1,.cls-2,.cls-3,.cls-4,.cls-5,.cls-6{fill-rule:evenodd;}.cls-2{fill:#c43837;}.cls-3{fill:#62c5dd;}.cls-4{fill:#922020;}.cls-5{fill:#5db647;}.cls-6{fill:#8d4399;}</style></defs><title>yog log</title><path class="cls-1" d="M265.07,296.17a26.65,26.65,0,1,1-26.65,26.65A26.69,26.69,0,0,1,265.07,296.17Z" transform="translate(-238.42 -296.17)"/><path class="cls-2" d="M265.07,479.76a26.65,26.65,0,1,0-26.65-26.65A26.7,26.7,0,0,0,265.07,479.76Z" transform="translate(-238.42 -296.17)"/><path class="cls-3" d="M330.21,361.31A26.65,26.65,0,1,0,356.86,388,26.7,26.7,0,0,0,330.21,361.31Z" transform="translate(-238.42 -296.17)"/><path class="cls-4" d="M265.07,414.61A26.65,26.65,0,1,0,238.42,388,26.7,26.7,0,0,0,265.07,414.61Zm0-5.92A20.73,20.73,0,1,1,285.79,388,20.68,20.68,0,0,1,265.07,408.69Z" transform="translate(-238.42 -296.17)"/><path class="cls-5" d="M330.21,426.46a26.65,26.65,0,1,0,26.65,26.65A26.69,26.69,0,0,0,330.21,426.46Z" transform="translate(-238.42 -296.17)"/><path class="cls-6" d="M330.21,296.17a26.65,26.65,0,1,0,26.65,26.65A26.69,26.69,0,0,0,330.21,296.17Z" transform="translate(-238.42 -296.17)"/></svg>